<?xml version="1.0" encoding="utf-8"?>
<!-- Generator: Adobe Illustrator 23.0.1, SVG Export Plug-In . SVG Version: 6.00 Build 0)  -->
<svg version="1.1" id="Warstwa_1" xmlns:sketch="http://www.bohemiancoding.com/sketch/ns"
	 xmlns="http://www.w3.org/2000/svg" xmlns:xlink="http://www.w3.org/1999/xlink" x="0px" y="0px" viewBox="0 0 50 50"
	 style="enable-background:new 0 0 50 50;" xml:space="preserve">
<style type="text/css">
	.st0{fill:#FFFFFF;}
</style>
<path class="st0" d="M21.3,37.4c0-4.1,0-8.3,0-12.4c-1,0-1.8,0-2.7,0c0-1.4,0-2.8,0-4.2c0.2,0,0.2,0,0.4,0c0.6,0,1.4,0,2,0
	c0.3,0,0.4-0.1,0.4-0.4c0-1,0-2.1,0-3.2c0-1.2,0.3-2.3,1.2-3.2c0.8-0.9,1.9-1.3,3-1.4c1.8-0.1,3.7-0.1,5.6-0.2c0,0,0.1,0,0.1,0.1
	c0,1.4,0,2.9,0,4.3c-0.2,0-0.2,0-0.4,0c-0.9,0-1.7,0-2.5,0c-0.9,0-1.4,0.5-1.4,1.4c0,0.8,0,1.6,0,2.4c0,0,0,0.1,0,0.2
	c1.4,0,2.8,0,4.3,0c-0.2,1.4-0.3,2.8-0.6,4.2c-1.3,0-2.5,0-3.8,0c0,4.2,0,8.4,0,12.5C25.1,37.4,23.2,37.4,21.3,37.4z"/>
<path class="st0" d="M25,1.5C38,1.5,48.5,12,48.5,25S38,48.5,25,48.5S1.5,38,1.5,25S12,1.5,25,1.5 M25,0C11.2,0,0,11.2,0,25
	s11.2,25,25,25s25-11.2,25-25S38.8,0,25,0L25,0z"/>
</svg>
