<?xml version="1.0" encoding="utf-8"?>
<!-- Generator: Adobe Illustrator 23.0.1, SVG Export Plug-In . SVG Version: 6.00 Build 0)  -->
<svg version="1.1" id="Warstwa_1" xmlns:sketch="http://www.bohemiancoding.com/sketch/ns"
	 xmlns="http://www.w3.org/2000/svg" xmlns:xlink="http://www.w3.org/1999/xlink" x="0px" y="0px" viewBox="0 0 50 50"
	 style="enable-background:new 0 0 50 50;" xml:space="preserve">
<style type="text/css">
	.st0{fill:#FFFFFF;}
</style>
<g>
	<path class="st0" d="M25,18.5c-3.5,0-6.5,2.9-6.5,6.5s2.9,6.5,6.5,6.5s6.5-2.9,6.5-6.5S28.5,18.5,25,18.5z M25,29.1
		c-2.3,0-4.1-1.9-4.1-4.1s1.9-4.1,4.1-4.1s4.1,1.9,4.1,4.1S27.3,29.1,25,29.1z"/>
	<circle class="st0" cx="31.7" cy="18.3" r="1.5"/>
	<path class="st0" d="M35.5,14.6c-1.3-1.4-3.2-2.1-5.3-2.1H19.8c-4.4,0-7.3,2.9-7.3,7.3v10.3c0,2.2,0.7,4,2.1,5.4
		c1.4,1.3,3.2,2,5.2,2h10.3c2.2,0,4-0.7,5.3-2c1.4-1.3,2.1-3.2,2.1-5.3V19.8C37.5,17.7,36.8,15.9,35.5,14.6z M35.3,30.2
		c0,1.6-0.6,2.8-1.5,3.7s-2.2,1.3-3.7,1.3H19.9c-1.5,0-2.8-0.5-3.7-1.3c-0.9-0.9-1.4-2.2-1.4-3.7V19.8c0-1.5,0.5-2.8,1.4-3.7
		c0.9-0.9,2.2-1.3,3.7-1.3h10.4c1.5,0,2.8,0.5,3.7,1.4s1.4,2.2,1.4,3.6v10.4H35.3z"/>
</g>
<path class="st0" d="M25,1.5C38,1.5,48.5,12,48.5,25S38,48.5,25,48.5S1.5,38,1.5,25S12,1.5,25,1.5 M25,0C11.2,0,0,11.2,0,25
	s11.2,25,25,25s25-11.2,25-25S38.8,0,25,0L25,0z"/>
</svg>
